<svg xmlns="http://www.w3.org/2000/svg" viewBox="0 0 100 100" width="100" height="100" role="img" aria-label="Market Access"><path d="M4,66 C22,58 38,68 54,60 C68,54 82,64 96,58" fill="none" stroke="#5a6b3a" stroke-width="3.4" stroke-linecap="round"/><path d="M4,78 C22,71 38,81 54,73 C68,67 82,77 96,71" fill="none" stroke="#c89b2c" stroke-width="3.4" stroke-linecap="round"/><path d="M4,90 C22,84 38,93 54,86 C68,80 82,89 96,84" fill="none" stroke="#b24a32" stroke-width="3.4" stroke-linecap="round"/><path d="M32,60 L32,36 Q32,20 50,20 Q68,20 68,36 L68,60" stroke="#15322f" stroke-width="4.6" fill="none" stroke-linecap="round"/><path d="M40,60 C48,49 56,49 64,60" stroke="#15322f" stroke-width="3.2" fill="none" stroke-linecap="round" opacity="0.6"/></svg>
